<?xml version="1.0" standalone="no"?>
<!DOCTYPE svg PUBLIC "-//W3C//DTD SVG 20010904//EN"
 "http://www.w3.org/TR/2001/REC-SVG-20010904/DTD/svg10.dtd">
<svg version="1.0" xmlns="http://www.w3.org/2000/svg"
 width="1024.000000pt" height="1024.000000pt" viewBox="0 0 1024.000000 1024.000000"
 preserveAspectRatio="xMidYMid meet">

<g transform="translate(0.000000,1024.000000) scale(0.100000,-0.100000)"
fill="#000000" stroke="none">
<path d="M4695 8540 c-482 -29 -997 -175 -1409 -401 -414 -227 -771 -539
-1061 -928 -88 -118 -233 -348 -288 -456 -26 -51 -33 -67 -105 -230 -95 -216
-191 -566 -228 -830 -22 -157 -30 -557 -15 -724 16 -179 56 -410 97 -558 43
-161 109 -343 140 -389 14 -20 22 -39 19 -43 -13 -22 113 -280 221 -453 228
-368 534 -701 850 -925 588 -418 1260 -637 1959 -636 607 1 1232 176 1719 480
236 148 376 257 565 439 553 533 895 1228 986 2009 20 165 22 506 6 675 -75
764 -453 1549 -979 2034 -339 312 -618 503 -974 663 -450 202 -1004 302 -1503
273z m506 -455 c442 -51 862 -207 1239 -458 409 -273 731 -638 959 -1087 75
-149 91 -188 91 -226 0 -61 -34 -95 -112 -113 -43 -9 -64 -20 -85 -45 -15 -17
-93 -145 -172 -284 -143 -250 -162 -273 -189 -239 -5 6 -54 95 -107 197 -54
102 -115 217 -136 255 -22 41 -51 79 -70 93 -33 22 -40 23 -197 20 l-164 -3
-34 -37 c-29 -33 -34 -45 -34 -88 0 -30 8 -68 19 -91 23 -46 158 -279 360
-619 l146 -245 5 -348 5 -349 33 -29 32 -29 168 0 168 0 30 31 29 30 5 342 c4
265 8 348 19 367 41 74 328 519 350 543 49 53 101 19 122 -78 16 -78 23 -519
10 -633 -94 -784 -468 -1473 -1053 -1942 -448 -360 -961 -562 -1541 -610 -299
-24 -613 2 -917 76 -482 118 -953 385 -1310 743 -251 252 -419 496 -577 837
-53 113 -64 160 -49 204 12 37 66 80 100 80 43 0 96 21 124 50 21 21 39 60 66
147 45 145 73 202 104 214 13 5 85 9 160 9 188 0 184 4 248 -214 29 -101 44
-135 69 -162 l32 -34 184 0 c141 1 190 4 209 15 33 19 79 19 123 0 54 -23 633
-22 726 1 227 55 401 217 452 419 7 27 10 88 7 150 -4 95 -8 111 -42 179 -27
56 -53 90 -102 135 l-67 61 60 63 c190 203 134 537 -119 709 -142 95 -209 108
-584 108 -311 0 -336 -4 -371 -56 -17 -26 -18 -69 -21 -696 l-3 -668 -23 -6
c-34 -8 -63 10 -85 54 -10 20 -95 249 -189 507 -279 768 -290 797 -312 820
-38 41 -69 47 -214 43 l-136 -3 -30 -30 c-19 -20 -44 -66 -66 -125 -71 -191
-176 -482 -324 -900 -81 -231 -109 -300 -120 -300 -68 0 -79 548 -19 900 86
506 313 992 640 1375 475 555 1138 900 1879 978 101 11 486 6 601 -8z m-931
-2323 c100 -50 106 -184 11 -248 -35 -23 -48 -26 -96 -22 -44 4 -62 11 -85 33
-72 69 -58 205 25 241 42 19 104 17 145 -4z m-1432 -507 c18 -47 32 -90 32
-95 0 -6 -33 -10 -75 -10 -67 0 -75 2 -75 19 0 16 43 142 56 163 14 23 33 0
62 -77z m1462 -177 c84 -43 110 -118 68 -197 -33 -63 -78 -84 -193 -89 -90 -4
-91 -4 -103 22 -14 32 -16 204 -2 241 13 33 40 44 120 44 49 1 77 -5 110 -21z"/>
<path d="M4640 7075 c-52 -7 -122 -18 -155 -25 -63 -13 -276 -80 -285 -89 -3
-3 -12 -7 -20 -9 -33 -7 -149 -66 -144 -74 3 -4 -4 -8 -14 -8 -38 0 -268 -153
-257 -170 3 -5 0 -12 -6 -16 -8 -4 -9 -3 -5 4 17 28 -14 8 -59 -38 -49 -50
-65 -90 -36 -90 14 0 14 -2 1 -10 -18 -12 -30 -11 169 -10 153 1 167 3 203 24
21 12 35 26 31 30 -4 4 0 4 8 1 9 -3 41 10 74 29 32 20 73 40 91 46 19 7 34
16 34 21 0 6 4 8 9 5 11 -7 103 31 113 47 5 8 8 8 8 1 0 -7 34 -2 93 13 156
40 315 55 476 43 77 -5 152 -15 167 -20 15 -6 29 -9 31 -6 3 2 28 -2 56 -11
29 -8 70 -15 92 -16 22 0 31 -2 20 -5 -13 -3 11 -15 71 -37 51 -18 106 -41
123 -50 17 -8 37 -13 43 -9 6 4 8 3 5 -3 -5 -8 47 -41 63 -40 3 0 18 -12 35
-27 17 -16 37 -25 47 -23 10 3 16 1 12 -4 -3 -5 78 -9 195 -9 142 0 202 3 207
12 5 8 1 9 -12 4 -15 -6 -16 -5 -7 5 9 9 -2 25 -50 70 -34 33 -68 59 -74 59
-7 0 -13 5 -13 10 0 6 -7 10 -16 10 -14 0 -14 -3 -4 -15 7 -9 10 -18 6 -22 -3
-3 -6 -1 -6 7 0 10 -3 10 -15 0 -10 -9 -15 -9 -15 -1 0 6 5 11 11 11 8 0 7 6
-2 17 -10 11 -10 14 -1 9 6 -4 12 -2 12 3 0 6 -3 11 -7 11 -5 0 -22 13 -39 30
-18 16 -35 26 -38 23 -3 -4 -6 -1 -6 6 0 8 -6 11 -16 7 -8 -3 -13 -2 -10 3 9
14 -20 32 -39 24 -13 -4 -16 -3 -11 5 4 7 0 15 -11 19 -10 3 -30 15 -45 25
-31 21 -42 23 -33 6 3 -7 -2 -3 -11 10 -9 12 -25 22 -35 22 -11 0 -19 5 -19
10 0 6 -5 10 -10 10 -6 0 -29 9 -53 19 -23 11 -67 27 -97 36 -30 9 -63 21 -73
26 -29 15 -175 48 -286 64 -122 18 -336 18 -471 0z m575 -63 c-3 -3 -11 0 -18
7 -9 10 -8 11 6 5 10 -3 15 -9 12 -12z m295 -52 c8 -5 11 -10 5 -10 -5 0 -17
5 -25 10 -8 5 -10 10 -5 10 6 0 17 -5 25 -10z m-1197 -17 c-7 -2 -19 -2 -25 0
-7 3 -2 5 12 5 14 0 19 -2 13 -5z m1394 -89 c-3 -3 -12 -4 -19 -1 -8 3 -5 6 6
6 11 1 17 -2 13 -5z m-1154 -41 c-7 -2 -19 -2 -25 0 -7 3 -2 5 12 5 14 0 19
-2 13 -5z m-53 -7 c0 -3 -4 -8 -10 -11 -5 -3 -10 -1 -10 4 0 6 5 11 10 11 6 0
10 -2 10 -4z m-190 -60 c-7 -7 -13 -7 -20 0 -6 6 -3 10 10 10 13 0 16 -4 10
-10z m1120 -21 c0 3 14 -1 30 -10 17 -9 30 -18 30 -21 0 -2 -9 0 -20 6 -11 6
-24 9 -28 6 -4 -2 -19 5 -32 15 -23 19 -23 19 -2 9 12 -6 22 -8 22 -5z m-1115
-5 c-3 -5 -12 -10 -18 -10 -7 0 -6 4 3 10 19 12 23 12 15 0z m-479 -12 c4 -7
3 -8 -5 -4 -6 4 -18 2 -26 -4 -9 -8 -15 -8 -15 -2 0 9 15 19 32 21 4 1 10 -4
14 -11z m-112 -53 c-4 -8 -11 -15 -16 -15 -6 0 -5 6 2 15 7 8 14 15 16 15 2 0
1 -7 -2 -15z m456 6 c0 -5 -7 -12 -16 -15 -14 -5 -15 -4 -4 9 14 17 20 19 20
6z m-449 -34 l-24 -22 19 27 c10 14 21 24 23 22 3 -3 -6 -15 -18 -27z m396 27
c-3 -3 -12 -4 -19 -1 -8 3 -5 6 6 6 11 1 17 -2 13 -5z m1513 -4 c13 -8 13 -10
-2 -10 -9 0 -20 5 -23 10 -8 13 5 13 25 0z m-1520 -20 c0 -5 -5 -10 -11 -10
-5 0 -7 5 -4 10 3 6 8 10 11 10 2 0 4 -4 4 -10z m1560 1 c0 -5 -7 -12 -16 -15
-14 -5 -15 -4 -4 9 14 17 20 19 20 6z m-1996 -44 c-4 -13 -9 -14 -19 -4 -9 9
-10 16 -2 25 13 16 30 1 21 -21z m69 18 c-3 -9 -8 -14 -10 -11 -3 3 -2 9 2 15
9 16 15 13 8 -4z m2333 -14 c-4 -6 -31 -10 -59 -10 -30 1 -39 4 -22 6 60 7 76
13 69 26 -5 9 -4 9 6 0 7 -6 9 -16 6 -22z m-2041 -9 c-3 -3 -11 0 -18 7 -9 10
-8 11 6 5 10 -3 15 -9 12 -12z"/>
<path d="M5040 6191 c-46 -14 -70 -36 -80 -71 -6 -21 -10 -357 -10 -864 l0
-828 35 -35 34 -34 378 3 c358 4 381 5 436 25 261 98 407 285 407 523 0 161
-62 283 -195 387 l-39 31 51 56 c128 139 155 330 71 504 -44 92 -150 198 -248
246 -122 59 -174 66 -515 65 -165 0 -311 -4 -325 -8z m605 -428 c46 -22 65
-60 65 -131 0 -54 -3 -63 -35 -98 -31 -34 -41 -38 -94 -42 -121 -9 -171 36
-171 152 0 65 2 70 35 102 49 46 125 53 200 17z m-7 -654 c57 -12 123 -62 142
-109 16 -39 8 -115 -17 -149 -36 -49 -97 -71 -198 -71 -104 0 -127 10 -146 67
-15 46 -6 208 13 230 33 40 113 53 206 32z"/>
<path d="M2771 4116 c-8 -9 -11 -50 -9 -117 3 -98 4 -104 25 -107 18 -3 22 3
28 37 9 57 31 55 74 -6 24 -35 58 -43 68 -18 3 9 -3 25 -13 36 -17 19 -17 21
-1 48 25 42 22 87 -8 116 -21 21 -33 25 -88 25 -43 0 -68 -5 -76 -14z m117
-45 c8 -5 12 -17 10 -27 -2 -14 -13 -20 -41 -22 -33 -3 -37 -1 -37 21 0 13 3
27 7 30 9 10 45 8 61 -2z"/>
<path d="M3052 4122 c-9 -6 -12 -37 -10 -118 l3 -109 48 -9 c26 -4 63 -5 82
-2 29 6 35 11 35 31 0 24 -3 25 -55 25 -48 0 -55 2 -55 20 0 15 7 20 29 20 31
0 57 22 46 40 -3 5 -22 10 -41 10 -22 0 -37 6 -41 15 -9 25 2 29 95 34 17 1
22 7 22 26 0 24 -2 25 -72 25 -40 0 -79 -4 -86 -8z"/>
<path d="M3323 4120 c-23 -9 -43 -39 -43 -63 0 -28 36 -59 76 -66 30 -5 40
-11 42 -28 4 -30 -33 -41 -59 -17 -22 20 -51 10 -57 -18 -4 -19 49 -42 96 -42
92 0 112 135 23 150 -54 8 -63 13 -58 27 2 7 23 12 52 12 33 0 50 5 53 14 11
33 -70 53 -125 31z"/>
<path d="M3600 4123 c-80 -29 -92 -162 -19 -214 25 -17 40 -20 82 -16 71 6
107 46 107 118 0 45 -4 55 -34 85 -29 29 -41 34 -77 33 -24 0 -51 -3 -59 -6z
m95 -68 c14 -13 25 -33 25 -45 0 -24 -42 -70 -63 -70 -8 0 -26 9 -41 21 -32
25 -35 70 -6 99 27 27 56 25 85 -5z"/>
<path d="M3857 4124 c-4 -4 -7 -41 -7 -81 0 -112 28 -153 105 -153 77 0 105
41 105 155 0 61 -3 77 -16 82 -28 11 -44 -25 -44 -99 0 -58 -3 -69 -21 -78
-11 -7 -32 -9 -45 -6 -22 6 -23 11 -26 94 -3 79 -5 87 -23 90 -12 2 -24 0 -28
-4z"/>
<path d="M4145 4118 c-3 -8 -4 -61 -3 -119 3 -96 4 -104 23 -104 15 0 21 8 25
34 7 49 25 49 68 2 55 -61 98 -50 56 15 -15 23 -15 26 1 44 24 27 22 87 -4
113 -27 27 -157 39 -166 15z m125 -53 c21 -26 4 -45 -40 -45 -36 0 -40 3 -40
24 0 36 56 50 80 21z"/>
<path d="M4475 4120 c-31 -12 -62 -52 -69 -86 -10 -44 19 -111 55 -129 61 -32
160 -6 144 38 -8 19 -30 23 -40 7 -3 -5 -21 -10 -39 -10 -38 0 -66 32 -66 73
0 42 67 86 85 57 10 -16 55 -11 62 7 15 38 -74 68 -132 43z"/>
<path d="M4694 4117 c-2 -7 -3 -60 -2 -118 l3 -104 81 -3 c68 -2 83 0 88 14
10 27 -3 34 -60 34 -30 0 -54 5 -54 10 0 6 0 13 0 18 -1 4 16 9 37 12 30 4 39
10 41 27 3 19 -2 22 -40 25 -36 2 -44 7 -46 26 -3 21 0 22 57 22 58 0 61 1 61
25 0 25 -1 25 -80 25 -58 0 -82 -4 -86 -13z"/>
<path d="M5073 4123 c-15 -6 -18 -199 -4 -221 5 -8 17 -12 27 -10 15 2 20 15
24 63 l5 60 55 -63 c54 -62 83 -76 94 -46 3 9 6 60 6 114 0 78 -3 99 -15 104
-31 12 -45 -5 -45 -54 0 -27 -4 -51 -9 -55 -6 -3 -32 22 -58 55 -47 58 -55 64
-80 53z"/>
<path d="M5372 4122 c-9 -6 -12 -37 -10 -118 l3 -109 85 0 c78 0 85 2 85 20 0
17 -8 20 -58 23 -49 3 -58 6 -55 20 2 11 15 18 35 20 53 5 56 52 4 52 -31 0
-60 25 -45 40 5 5 34 10 64 12 48 3 55 6 58 26 3 21 1 22 -75 22 -43 0 -84 -4
-91 -8z"/>
<path d="M5611 4121 c-21 -14 -6 -39 26 -43 l28 -3 3 -88 c2 -66 6 -89 18 -94
32 -12 44 16 44 103 l0 84 31 0 c26 0 30 3 27 23 -3 20 -9 22 -83 25 -44 1
-86 -2 -94 -7z"/>
<path d="M5854 4117 c-2 -7 11 -60 30 -117 40 -122 56 -135 85 -67 11 25 24
48 30 51 6 4 21 -15 36 -44 14 -27 30 -50 35 -50 26 0 92 212 72 232 -18 18
-39 2 -52 -39 -19 -57 -25 -58 -49 -9 -27 59 -51 60 -77 5 -23 -50 -36 -52
-49 -7 -5 18 -14 39 -18 46 -11 16 -36 16 -43 -1z"/>
<path d="M6245 4098 c-45 -41 -55 -90 -30 -142 21 -44 59 -66 114 -66 33 0 47
7 76 35 42 42 51 72 35 119 -29 88 -129 115 -195 54z m119 -39 c33 -26 34 -62
1 -94 -29 -30 -54 -32 -83 -5 -31 29 -29 73 4 99 15 12 32 21 39 21 7 0 24 -9
39 -21z"/>
<path d="M6532 4122 c-9 -6 -12 -37 -10 -118 3 -101 4 -109 23 -109 14 0 22
10 28 38 13 53 38 49 72 -10 24 -41 65 -47 65 -10 0 13 -5 28 -12 35 -9 9 -8
18 2 38 20 37 18 100 -3 121 -19 19 -142 31 -165 15z m123 -72 c0 -22 -5 -25
-42 -28 -40 -3 -43 -1 -43 21 0 32 8 38 50 35 30 -3 35 -7 35 -28z"/>
<path d="M6797 4123 c-9 -8 -9 -196 -1 -217 3 -9 14 -16 24 -16 20 0 30 19 30
56 0 34 18 30 60 -16 65 -70 108 -41 48 33 -52 64 -52 63 -13 106 62 68 15 88
-50 21 -46 -47 -55 -49 -51 -12 4 40 -25 68 -47 45z"/>
<path d="M2980 3589 c0 -5 5 -7 11 -4 6 4 13 -2 16 -14 3 -11 14 -23 24 -26
10 -4 19 -15 19 -24 0 -28 197 -217 244 -234 20 -7 20 -7 2 8 -11 8 -15 15
-10 15 17 0 33 -22 27 -36 -3 -8 1 -14 10 -14 8 0 14 9 13 22 0 11 5 23 12 25
13 5 12 -23 -2 -45 -5 -8 -4 -18 3 -25 8 -8 11 -7 12 4 0 7 5 3 10 -11 8 -18
12 -21 18 -11 6 9 11 10 15 2 4 -6 5 -11 2 -11 -3 0 3 -9 14 -20 11 -11 24
-20 29 -20 5 0 11 -4 13 -9 6 -16 101 -71 111 -64 6 3 7 1 4 -4 -10 -16 105
-73 132 -66 12 3 21 1 21 -6 0 -5 -7 -8 -15 -5 -8 4 -15 3 -15 0 0 -11 103
-55 113 -49 6 3 7 2 4 -4 -7 -12 40 -36 54 -28 5 4 9 2 9 -3 0 -8 89 -51 120
-57 8 -2 27 -8 43 -14 20 -8 27 -8 27 1 0 7 7 3 15 -9 10 -15 31 -24 63 -29
26 -3 52 -10 58 -15 6 -5 26 -10 45 -11 19 -2 36 -6 39 -10 9 -12 260 -58 356
-65 192 -14 264 -15 389 -3 181 17 388 52 411 71 6 5 13 7 15 4 11 -11 217 52
316 96 24 10 47 19 53 19 5 0 34 12 65 27 38 19 51 30 42 36 -8 6 -7 7 5 3 21
-6 161 62 153 75 -3 5 1 6 9 3 9 -4 18 0 22 9 3 9 11 14 17 11 13 -5 91 55 83
64 -3 2 -14 -1 -23 -9 -16 -12 -17 -12 -6 2 7 9 9 20 5 24 -4 5 4 2 18 -7 24
-15 27 -14 70 16 52 36 71 57 63 70 -4 5 -1 6 5 2 14 -8 72 20 72 35 0 6 -6 7
-12 3 -7 -4 -10 -4 -6 1 4 4 4 13 -2 19 -6 8 -2 12 13 13 15 2 18 0 8 -6 -10
-7 -10 -10 -1 -16 8 -5 20 1 32 16 11 13 16 17 12 9 -4 -8 15 5 44 29 28 24
49 48 45 54 -3 6 -2 7 4 4 5 -3 47 32 94 79 46 46 79 84 74 84 -6 0 -3 5 5 10
12 8 12 10 -5 11 -17 1 -16 2 5 9 14 5 -57 8 -170 9 -196 1 -249 -7 -243 -37
2 -7 -1 -11 -6 -9 -5 1 -43 -25 -83 -58 -40 -33 -99 -78 -130 -99 -32 -21 -55
-42 -53 -47 3 -4 0 -11 -6 -15 -8 -4 -9 -3 -5 4 11 18 -6 14 -39 -9 -16 -11
-52 -31 -78 -45 -29 -15 -45 -29 -41 -36 5 -7 2 -9 -9 -5 -8 3 -21 -1 -27 -8
-7 -8 -16 -13 -20 -10 -4 3 -43 -13 -86 -34 -285 -140 -703 -212 -1044 -180
-74 7 -154 13 -177 13 -22 1 -39 4 -37 8 2 3 -15 9 -38 13 -24 4 -77 16 -118
27 -41 11 -82 21 -90 23 -8 2 -17 4 -20 6 -3 1 -9 3 -15 4 -5 1 -23 7 -38 13
-16 7 -35 12 -43 12 -8 0 -14 5 -14 10 0 6 -8 10 -17 10 -10 0 -45 14 -78 30
-32 16 -62 27 -66 24 -4 -2 -9 3 -13 11 -3 8 -14 15 -25 15 -11 0 -23 5 -26
11 -4 6 -13 8 -21 5 -8 -3 -13 0 -11 7 1 7 -8 12 -20 11 -12 0 -20 3 -18 7 3
4 -11 14 -30 23 -19 9 -37 21 -40 26 -4 6 -10 8 -15 5 -4 -3 -11 2 -14 11 -3
8 -10 12 -16 9 -5 -3 -10 1 -10 11 0 11 -6 15 -20 11 -11 -3 -18 -2 -15 2 5
10 -42 46 -73 55 -12 4 -27 16 -33 27 -5 11 -14 17 -20 14 -5 -4 -9 0 -9 8 0
10 -7 14 -22 10 -17 -3 -19 -2 -9 5 8 6 9 12 3 16 -6 3 -14 2 -17 -4 -5 -8
-11 -7 -21 1 -7 6 -11 15 -9 20 3 4 -3 17 -15 29 -11 11 -20 18 -20 15 0 -3
-9 4 -20 15 -19 19 -32 21 -195 20 -122 -1 -175 -5 -179 -13 -3 -9 -5 -8 -5 1
-1 15 -31 16 -31 1z m60 -13 c0 -3 -4 -8 -10 -11 -5 -3 -10 -1 -10 4 0 6 5 11
10 11 6 0 10 -2 10 -4z m73 -56 c3 -11 1 -18 -4 -14 -5 3 -9 12 -9 20 0 20 7
17 13 -6z m-28 -10 c3 -5 1 -10 -4 -10 -6 0 -11 5 -11 10 0 6 2 10 4 10 3 0 8
-4 11 -10z m3540 -60 c-3 -5 -12 -10 -18 -10 -7 0 -6 4 3 10 19 12 23 12 15 0z
m-3465 -10 c0 -5 -5 -10 -11 -10 -5 0 -7 5 -4 10 3 6 8 10 11 10 2 0 4 -4 4
-10z m425 -28 c11 -6 15 -12 8 -12 -7 0 -22 10 -35 23 -13 12 -17 17 -8 11 8
-6 24 -16 35 -22z m2918 -67 c-7 -21 -12 -19 -10 4 0 11 5 18 9 15 4 -3 5 -11
1 -19z m-2853 -5 c0 -5 -2 -10 -4 -10 -3 0 -8 5 -11 10 -3 6 -1 10 4 10 6 0
11 -4 11 -10z m-205 -148 c-3 -3 -11 0 -18 7 -9 10 -8 11 6 5 10 -3 15 -9 12
-12z m2310 -22 c3 -5 1 -10 -4 -10 -6 0 -11 5 -11 10 0 6 2 10 4 10 3 0 8 -4
11 -10z m-2257 -25 c-3 -3 -9 2 -12 12 -6 14 -5 15 5 6 7 -7 10 -15 7 -18z
m43 -22 c13 -17 13 -17 -6 -3 -11 8 -22 16 -24 17 -2 2 0 3 6 3 6 0 17 -8 24
-17z m2129 -23 c0 -5 -7 -7 -15 -4 -8 4 -15 8 -15 10 0 2 7 4 15 4 8 0 15 -4
15 -10z m-1945 -58 c-3 -3 -11 0 -18 7 -9 10 -8 11 6 5 10 -3 15 -9 12 -12z
m172 -78 c-3 -3 -12 -4 -19 -1 -8 3 -5 6 6 6 11 1 17 -2 13 -5z m396 -151 c-7
-2 -21 -2 -30 0 -10 3 -4 5 12 5 17 0 24 -2 18 -5z m94 -19 c-3 -3 -12 -4 -19
-1 -8 3 -5 6 6 6 11 1 17 -2 13 -5z m180 -50 c-3 -3 -12 -4 -19 -1 -8 3 -5 6
6 6 11 1 17 -2 13 -5z"/>
<path d="M3455 3520 c-3 -5 -1 -10 4 -10 6 0 11 5 11 10 0 6 -2 10 -4 10 -3 0
-8 -4 -11 -10z"/>
</g>
</svg>
